REM DIRINDEX 1\2,1\3,1\4,1\5
REM DIRNAME cjc087,folder01,folder02,folder03,folder04
TITLE ""
FILE "Chapter_02.mp3" MP3
  TRACK 01 AUDIO
    TITLE "0:"
    INDEX 01 00:00:00
  TRACK 02 AUDIO
    TITLE "5:cjc087_0336"
    INDEX 01 00:00:07
  TRACK 03 AUDIO
    TITLE "0:"
    INDEX 01 00:02:00
  TRACK 04 AUDIO
    TITLE "5:cjc087_0337"
    INDEX 01 00:03:37
  TRACK 05 AUDIO
    TITLE "0:"
    INDEX 01 00:05:28
  TRACK 06 AUDIO
    TITLE "4:cjc087_0338"
    INDEX 01 00:06:26
  TRACK 07 AUDIO
    TITLE "3:cjc087_0339"
    INDEX 01 00:07:68
  TRACK 08 AUDIO
    TITLE "0:"
    INDEX 01 00:10:29
  TRACK 09 AUDIO
    TITLE "4:cjc087_0340"
    INDEX 01 00:11:25
  TRACK 10 AUDIO
    TITLE "3:cjc087_0341"
    INDEX 01 00:14:00
  TRACK 11 AUDIO
    TITLE "0:"
    INDEX 01 00:16:49
  TRACK 12 AUDIO
    TITLE "4:cjc087_0342"
    INDEX 01 00:17:49
  TRACK 13 AUDIO
    TITLE "3:cjc087_0343"
    INDEX 01 00:19:48
  TRACK 14 AUDIO
    TITLE "0:"
    INDEX 01 00:22:09
  TRACK 15 AUDIO
    TITLE "4:cjc087_0344"
    INDEX 01 00:23:01
  TRACK 16 AUDIO
    TITLE "3:cjc087_0345"
    INDEX 01 00:25:11
  TRACK 17 AUDIO
    TITLE "0:"
    INDEX 01 00:27:55
  TRACK 18 AUDIO
    TITLE "4:cjc087_0346"
    INDEX 01 00:28:53
  TRACK 19 AUDIO
    TITLE "3:cjc087_0347"
    INDEX 01 00:31:35
  TRACK 20 AUDIO
    TITLE "0:"
    INDEX 01 00:35:31
  TRACK 21 AUDIO
    TITLE "4:cjc087_0348"
    INDEX 01 00:36:31
  TRACK 22 AUDIO
    TITLE "3:cjc087_0349"
    INDEX 01 00:38:43
  TRACK 23 AUDIO
    TITLE "0:"
    INDEX 01 00:40:73
  TRACK 24 AUDIO
    TITLE "5:cjc087_0350"
    INDEX 01 00:42:35
  TRACK 25 AUDIO
    TITLE "0:"
    INDEX 01 00:44:26
  TRACK 26 AUDIO
    TITLE "4:cjc087_0351"
    INDEX 01 00:45:28
  TRACK 27 AUDIO
    TITLE "3:cjc087_0352"
    INDEX 01 00:47:72
  TRACK 28 AUDIO
    TITLE "0:"
    INDEX 01 00:51:11
  TRACK 29 AUDIO
    TITLE "4:cjc087_0353"
    INDEX 01 00:52:10
  TRACK 30 AUDIO
    TITLE "3:cjc087_0354"
    INDEX 01 00:54:36
  TRACK 31 AUDIO
    TITLE "0:"
    INDEX 01 00:57:13
  TRACK 32 AUDIO
    TITLE "4:cjc087_0355"
    INDEX 01 00:58:11
  TRACK 33 AUDIO
    TITLE "3:cjc087_0356"
    INDEX 01 00:59:73
  TRACK 34 AUDIO
    TITLE "0:"
    INDEX 01 01:02:10
  TRACK 35 AUDIO
    TITLE "4:cjc087_0357"
    INDEX 01 01:03:10
  TRACK 36 AUDIO
    TITLE "3:cjc087_0358"
    INDEX 01 01:04:56
  TRACK 37 AUDIO
    TITLE "0:"
    INDEX 01 01:06:63
  TRACK 38 AUDIO
    TITLE "4:cjc087_0359"
    INDEX 01 01:07:57
  TRACK 39 AUDIO
    TITLE "3:cjc087_0360"
    INDEX 01 01:09:34
  TRACK 40 AUDIO
    TITLE "0:"
    INDEX 01 01:11:51
  TRACK 41 AUDIO
    TITLE "5:cjc087_0361"
    INDEX 01 01:13:10
  TRACK 42 AUDIO
    TITLE "0:"
    INDEX 01 01:14:74
  TRACK 43 AUDIO
    TITLE "4:cjc087_0362"
    INDEX 01 01:15:74
  TRACK 44 AUDIO
    TITLE "3:cjc087_0363"
    INDEX 01 01:18:04
  TRACK 45 AUDIO
    TITLE "0:"
    INDEX 01 01:20:26
  TRACK 46 AUDIO
    TITLE "4:cjc087_0364"
    INDEX 01 01:21:23
  TRACK 47 AUDIO
    TITLE "3:cjc087_0365"
    INDEX 01 01:24:22
  TRACK 48 AUDIO
    TITLE "0:"
    INDEX 01 01:27:50
  TRACK 49 AUDIO
    TITLE "4:cjc087_0366"
    INDEX 01 01:28:49
  TRACK 50 AUDIO
    TITLE "3:cjc087_0367"
    INDEX 01 01:30:42
  TRACK 51 AUDIO
    TITLE "0:"
    INDEX 01 01:32:39
  TRACK 52 AUDIO
    TITLE "4:cjc087_0368"
    INDEX 01 01:33:36
  TRACK 53 AUDIO
    TITLE "3:cjc087_0369"
    INDEX 01 01:35:06
  TRACK 54 AUDIO
    TITLE "0:"
    INDEX 01 01:37:11
  TRACK 55 AUDIO
    TITLE "4:cjc087_0370"
    INDEX 01 01:38:10
  TRACK 56 AUDIO
    TITLE "3:cjc087_0371"
    INDEX 01 01:40:33
  TRACK 57 AUDIO
    TITLE "0:"
    INDEX 01 01:43:11
  TRACK 58 AUDIO
    TITLE "4:cjc087_0372"
    INDEX 01 01:44:09
  TRACK 59 AUDIO
    TITLE "3:cjc087_0373"
    INDEX 01 01:46:25
  TRACK 60 AUDIO
    TITLE "0:"
    INDEX 01 01:49:28
  TRACK 61 AUDIO
    TITLE "4:cjc087_0374"
    INDEX 01 01:50:25
  TRACK 62 AUDIO
    TITLE "3:cjc087_0375"
    INDEX 01 01:52:49
  TRACK 63 AUDIO
    TITLE "0:"
    INDEX 01 01:55:05
  TRACK 64 AUDIO
    TITLE "2:cjc087_0376"
    INDEX 01 01:56:37
  TRACK 65 AUDIO
    TITLE "0:"
    INDEX 01 02:13:71
  TRACK 66 AUDIO
    TITLE "5:cjc087_0377"
    INDEX 01 02:15:37
  TRACK 67 AUDIO
    TITLE "0:"
    INDEX 01 02:17:34
  TRACK 68 AUDIO
    TITLE "3:cjc087_0378"
    INDEX 01 02:18:31
  TRACK 69 AUDIO
    TITLE "4:cjc087_0379"
    INDEX 01 02:22:17
  TRACK 70 AUDIO
    TITLE "0:"
    INDEX 01 02:28:49
  TRACK 71 AUDIO
    TITLE "3:cjc087_0380"
    INDEX 01 02:29:45
  TRACK 72 AUDIO
    TITLE "4:cjc087_0381"
    INDEX 01 02:32:72
  TRACK 73 AUDIO
    TITLE "0:"
    INDEX 01 02:36:15
  TRACK 74 AUDIO
    TITLE "3:cjc087_0382"
    INDEX 01 02:37:13
  TRACK 75 AUDIO
    TITLE "4:cjc087_0383"
    INDEX 01 02:39:31
  TRACK 76 AUDIO
    TITLE "0:"
    INDEX 01 02:41:56
  TRACK 77 AUDIO
    TITLE "3:cjc087_0384"
    INDEX 01 02:42:55
  TRACK 78 AUDIO
    TITLE "4:cjc087_0385"
    INDEX 01 02:44:40
  TRACK 79 AUDIO
    TITLE "0:"
    INDEX 01 02:46:30
  TRACK 80 AUDIO
    TITLE "3:cjc087_0386"
    INDEX 01 02:47:27
  TRACK 81 AUDIO
    TITLE "4:cjc087_0387"
    INDEX 01 02:49:69
  TRACK 82 AUDIO
    TITLE "0:"
    INDEX 01 02:52:42
  TRACK 83 AUDIO
    TITLE "3:cjc087_0388"
    INDEX 01 02:53:39
  TRACK 84 AUDIO
    TITLE "4:cjc087_0389"
    INDEX 01 02:56:04
  TRACK 85 AUDIO
    TITLE "0:"
    INDEX 01 02:58:19
  TRACK 86 AUDIO
    TITLE "5:cjc087_0390"
    INDEX 01 02:59:54
  TRACK 87 AUDIO
    TITLE "0:"
    INDEX 01 03:01:49
  TRACK 88 AUDIO
    TITLE "4:cjc087_0391"
    INDEX 01 03:02:46
  TRACK 89 AUDIO
    TITLE "3:cjc087_0392"
    INDEX 01 03:04:47
  TRACK 90 AUDIO
    TITLE "0:"
    INDEX 01 03:07:34
  TRACK 91 AUDIO
    TITLE "4:cjc087_0393"
    INDEX 01 03:08:41
  TRACK 92 AUDIO
    TITLE "3:cjc087_0394"
    INDEX 01 03:10:69
  TRACK 93 AUDIO
    TITLE "0:"
    INDEX 01 03:13:58
  TRACK 94 AUDIO
    TITLE "4:cjc087_0395"
    INDEX 01 03:14:53
  TRACK 95 AUDIO
    TITLE "3:cjc087_0396"
    INDEX 01 03:17:22
  TRACK 96 AUDIO
    TITLE "0:"
    INDEX 01 03:20:13
  TRACK 97 AUDIO
    TITLE "4:cjc087_0397"
    INDEX 01 03:21:12
  TRACK 98 AUDIO
    TITLE "3:cjc087_0398"
    INDEX 01 03:23:07
  TRACK 99 AUDIO
    TITLE "0:"
    INDEX 01 03:25:65
  TRACK 100 AUDIO
    TITLE "4:cjc087_0399"
    INDEX 01 03:26:64
  TRACK 101 AUDIO
    TITLE "3:cjc087_0400"
    INDEX 01 03:28:61
  TRACK 102 AUDIO
    TITLE "0:"
    INDEX 01 03:31:16
  TRACK 103 AUDIO
    TITLE "4:cjc087_0401"
    INDEX 01 03:32:16
  TRACK 104 AUDIO
    TITLE "3:cjc087_0402"
    INDEX 01 03:34:40
  TRACK 105 AUDIO
    TITLE "0:"
    INDEX 01 03:36:49
  TRACK 106 AUDIO
    TITLE "4:cjc087_0403"
    INDEX 01 03:37:41
  TRACK 107 AUDIO
    TITLE "3:cjc087_0404"
    INDEX 01 03:39:30
  TRACK 108 AUDIO
    TITLE "0:"
    INDEX 01 03:41:72
  TRACK 109 AUDIO
    TITLE "5:cjc087_0405"
    INDEX 01 03:43:31
  TRACK 110 AUDIO
    TITLE "0:"
    INDEX 01 03:45:32
  TRACK 111 AUDIO
    TITLE "4:cjc087_0406"
    INDEX 01 03:46:30
  TRACK 112 AUDIO
    TITLE "3:cjc087_0407"
    INDEX 01 03:48:42
  TRACK 113 AUDIO
    TITLE "0:"
    INDEX 01 03:50:47
  TRACK 114 AUDIO
    TITLE "4:cjc087_0408"
    INDEX 01 03:51:45
  TRACK 115 AUDIO
    TITLE "3:cjc087_0409"
    INDEX 01 03:54:61
  TRACK 116 AUDIO
    TITLE "0:"
    INDEX 01 03:57:16
  TRACK 117 AUDIO
    TITLE "4:cjc087_0410"
    INDEX 01 03:58:15
  TRACK 118 AUDIO
    TITLE "3:cjc087_0411"
    INDEX 01 03:59:36
  TRACK 119 AUDIO
    TITLE "0:"
    INDEX 01 04:01:51
  TRACK 120 AUDIO
    TITLE "4:cjc087_0412"
    INDEX 01 04:02:50
  TRACK 121 AUDIO
    TITLE "3:cjc087_0413"
    INDEX 01 04:04:55
  TRACK 122 AUDIO
    TITLE "0:"
    INDEX 01 04:06:70
  TRACK 123 AUDIO
    TITLE "4:cjc087_0414"
    INDEX 01 04:07:69
  TRACK 124 AUDIO
    TITLE "3:cjc087_0415"
    INDEX 01 04:09:15
  TRACK 125 AUDIO
    TITLE "0:"
    INDEX 01 04:11:10
  TRACK 126 AUDIO
    TITLE "4:cjc087_0416"
    INDEX 01 04:12:10
  TRACK 127 AUDIO
    TITLE "3:cjc087_0417"
    INDEX 01 04:14:01
  TRACK 128 AUDIO
    TITLE "0:"
    INDEX 01 04:16:07
  TRACK 129 AUDIO
    TITLE "4:cjc087_0418"
    INDEX 01 04:17:05
  TRACK 130 AUDIO
    TITLE "3:cjc087_0419"
    INDEX 01 04:19:04
  TRACK 131 AUDIO
    TITLE "0:"
    INDEX 01 04:21:14
  TRACK 132 AUDIO
    TITLE "4:cjc087_0420"
    INDEX 01 04:22:14
  TRACK 133 AUDIO
    TITLE "3:cjc087_0421"
    INDEX 01 04:23:56
  TRACK 134 AUDIO
    TITLE "0:"
    INDEX 01 04:25:61
  TRACK 135 AUDIO
    TITLE "5:cjc087_0422"
    INDEX 01 04:27:25
  TRACK 136 AUDIO
    TITLE "0:"
    INDEX 01 04:29:20
  TRACK 137 AUDIO
    TITLE "4:cjc087_0423"
    INDEX 01 04:30:17
  TRACK 138 AUDIO
    TITLE "3:cjc087_0424"
    INDEX 01 04:31:32
  TRACK 139 AUDIO
    TITLE "0:"
    INDEX 01 04:33:12
  TRACK 140 AUDIO
    TITLE "4:cjc087_0425"
    INDEX 01 04:34:09
  TRACK 141 AUDIO
    TITLE "3:cjc087_0426"
    INDEX 01 04:35:54
  TRACK 142 AUDIO
    TITLE "0:"
    INDEX 01 04:37:72
  TRACK 143 AUDIO
    TITLE "4:cjc087_0427"
    INDEX 01 04:38:72
  TRACK 144 AUDIO
    TITLE "3:cjc087_0428"
    INDEX 01 04:40:57
  TRACK 145 AUDIO
    TITLE "0:"
    INDEX 01 04:42:60
  TRACK 146 AUDIO
    TITLE "4:cjc087_0429"
    INDEX 01 04:43:59
  TRACK 147 AUDIO
    TITLE "3:cjc087_0430"
    INDEX 01 04:46:26
  TRACK 148 AUDIO
    TITLE "0:"
    INDEX 01 04:49:01
  TRACK 149 AUDIO
    TITLE "4:cjc087_0431"
    INDEX 01 04:49:73
  TRACK 150 AUDIO
    TITLE "3:cjc087_0432"
    INDEX 01 04:51:37
  TRACK 151 AUDIO
    TITLE "0:"
    INDEX 01 04:53:01
  TRACK 152 AUDIO
    TITLE "4:cjc087_0433"
    INDEX 01 04:53:73
  TRACK 153 AUDIO
    TITLE "3:cjc087_0434"
    INDEX 01 04:55:74
  TRACK 154 AUDIO
    TITLE "0:"
    INDEX 01 04:58:10
  TRACK 155 AUDIO
    TITLE "4:cjc087_0435"
    INDEX 01 04:59:07
  TRACK 156 AUDIO
    TITLE "3:cjc087_0436"
    INDEX 01 05:00:56
  TRACK 157 AUDIO
    TITLE "0:"
    INDEX 01 05:02:49
  TRACK 158 AUDIO
    TITLE "5:cjc087_0437"
    INDEX 01 05:04:10
  TRACK 159 AUDIO
    TITLE "0:"
    INDEX 01 05:05:69
  TRACK 160 AUDIO
    TITLE "3:cjc087_0438"
    INDEX 01 05:06:66
  TRACK 161 AUDIO
    TITLE "4:cjc087_0439"
    INDEX 01 05:09:41
  TRACK 162 AUDIO
    TITLE "0:"
    INDEX 01 05:11:08
  TRACK 163 AUDIO
    TITLE "3:cjc087_0440"
    INDEX 01 05:12:06
  TRACK 164 AUDIO
    TITLE "4:cjc087_0441"
    INDEX 01 05:13:54
  TRACK 165 AUDIO
    TITLE "0:"
    INDEX 01 05:15:06
  TRACK 166 AUDIO
    TITLE "3:cjc087_0442"
    INDEX 01 05:16:04
  TRACK 167 AUDIO
    TITLE "4:cjc087_0443"
    INDEX 01 05:19:26
  TRACK 168 AUDIO
    TITLE "0:"
    INDEX 01 05:22:47
  TRACK 169 AUDIO
    TITLE "3:cjc087_0444"
    INDEX 01 05:23:43
  TRACK 170 AUDIO
    TITLE "4:cjc087_0445"
    INDEX 01 05:25:24
  TRACK 171 AUDIO
    TITLE "0:"
    INDEX 01 05:26:33
  TRACK 172 AUDIO
    TITLE "3:cjc087_0446"
    INDEX 01 05:27:31
  TRACK 173 AUDIO
    TITLE "4:cjc087_0447"
    INDEX 01 05:31:17
  TRACK 174 AUDIO
    TITLE "0:"
    INDEX 01 05:35:72
  TRACK 175 AUDIO
    TITLE "3:cjc087_0448"
    INDEX 01 05:36:69
  TRACK 176 AUDIO
    TITLE "4:cjc087_0449"
    INDEX 01 05:39:28
  TRACK 177 AUDIO
    TITLE "0:"
    INDEX 01 05:41:09
  TRACK 178 AUDIO
    TITLE "2:cjc087_0450"
    INDEX 01 05:42:46
  TRACK 179 AUDIO
    TITLE "0:"
    INDEX 01 05:46:44
  TRACK 180 AUDIO
    TITLE "5:cjc087_0451"
    INDEX 01 05:48:00
  TRACK 181 AUDIO
    TITLE "0:"
    INDEX 01 05:50:06
  TRACK 182 AUDIO
    TITLE "4:cjc087_0452"
    INDEX 01 05:51:00
  TRACK 183 AUDIO
    TITLE "3:cjc087_0453"
    INDEX 01 05:52:56
  TRACK 184 AUDIO
    TITLE "0:"
    INDEX 01 05:54:71
  TRACK 185 AUDIO
    TITLE "4:cjc087_0454"
    INDEX 01 05:55:68
  TRACK 186 AUDIO
    TITLE "3:cjc087_0455"
    INDEX 01 05:58:14
  TRACK 187 AUDIO
    TITLE "0:"
    INDEX 01 06:00:28
  TRACK 188 AUDIO
    TITLE "4:cjc087_0456"
    INDEX 01 06:01:26
  TRACK 189 AUDIO
    TITLE "3:cjc087_0457"
    INDEX 01 06:03:33
  TRACK 190 AUDIO
    TITLE "0:"
    INDEX 01 06:06:33
  TRACK 191 AUDIO
    TITLE "4:cjc087_0458"
    INDEX 01 06:07:32
  TRACK 192 AUDIO
    TITLE "3:cjc087_0459"
    INDEX 01 06:09:18
  TRACK 193 AUDIO
    TITLE "0:"
    INDEX 01 06:11:20
  TRACK 194 AUDIO
    TITLE "4:cjc087_0460"
    INDEX 01 06:12:20
  TRACK 195 AUDIO
    TITLE "3:cjc087_0461"
    INDEX 01 06:14:01
  TRACK 196 AUDIO
    TITLE "0:"
    INDEX 01 06:16:04
  TRACK 197 AUDIO
    TITLE "4:cjc087_0462"
    INDEX 01 06:17:01
  TRACK 198 AUDIO
    TITLE "3:cjc087_0463"
    INDEX 01 06:18:40
  TRACK 199 AUDIO
    TITLE "0:"
    INDEX 01 06:20:37
  TRACK 200 AUDIO
    TITLE "4:cjc087_0464"
    INDEX 01 06:21:34
  TRACK 201 AUDIO
    TITLE "3:cjc087_0465"
    INDEX 01 06:23:39
  TRACK 202 AUDIO
    TITLE "0:"
    INDEX 01 06:25:32
  TRACK 203 AUDIO
    TITLE "5:cjc087_0466"
    INDEX 01 06:26:69
  TRACK 204 AUDIO
    TITLE "0:"
    INDEX 01 06:28:70
  TRACK 205 AUDIO
    TITLE "4:cjc087_0467"
    INDEX 01 06:29:67
  TRACK 206 AUDIO
    TITLE "3:cjc087_0468"
    INDEX 01 06:31:05
  TRACK 207 AUDIO
    TITLE "0:"
    INDEX 01 06:32:68
  TRACK 208 AUDIO
    TITLE "4:cjc087_0469"
    INDEX 01 06:33:65
  TRACK 209 AUDIO
    TITLE "3:cjc087_0470"
    INDEX 01 06:35:03
  TRACK 210 AUDIO
    TITLE "0:"
    INDEX 01 06:36:73
  TRACK 211 AUDIO
    TITLE "4:cjc087_0471"
    INDEX 01 06:37:71
  TRACK 212 AUDIO
    TITLE "3:cjc087_0472"
    INDEX 01 06:39:68
  TRACK 213 AUDIO
    TITLE "0:"
    INDEX 01 06:42:31
  TRACK 214 AUDIO
    TITLE "4:cjc087_0473"
    INDEX 01 06:43:30
  TRACK 215 AUDIO
    TITLE "3:cjc087_0474"
    INDEX 01 06:46:01
  TRACK 216 AUDIO
    TITLE "0:"
    INDEX 01 06:48:51
  TRACK 217 AUDIO
    TITLE "4:cjc087_0475"
    INDEX 01 06:49:50
  TRACK 218 AUDIO
    TITLE "3:cjc087_0476"
    INDEX 01 06:52:43
  TRACK 219 AUDIO
    TITLE "0:"
    INDEX 01 06:54:55
  TRACK 220 AUDIO
    TITLE "4:cjc087_0477"
    INDEX 01 06:55:55
  TRACK 221 AUDIO
    TITLE "3:cjc087_0478"
    INDEX 01 06:57:32
  TRACK 222 AUDIO
    TITLE "0:"
    INDEX 01 06:58:71
  TRACK 223 AUDIO
    TITLE "4:cjc087_0479"
    INDEX 01 06:59:70
  TRACK 224 AUDIO
    TITLE "3:cjc087_0480"
    INDEX 01 07:02:41
  TRACK 225 AUDIO
    TITLE "0:"
    INDEX 01 07:05:20
  TRACK 226 AUDIO
    TITLE "5:cjc087_0481"
    INDEX 01 07:06:57
  TRACK 227 AUDIO
    TITLE "0:"
    INDEX 01 07:08:58
  TRACK 228 AUDIO
    TITLE "4:cjc087_0482"
    INDEX 01 07:09:55
  TRACK 229 AUDIO
    TITLE "3:cjc087_0483"
    INDEX 01 07:14:33
  TRACK 230 AUDIO
    TITLE "0:"
    INDEX 01 07:17:04
  TRACK 231 AUDIO
    TITLE "4:cjc087_0484"
    INDEX 01 07:18:01
  TRACK 232 AUDIO
    TITLE "3:cjc087_0485"
    INDEX 01 07:19:42
  TRACK 233 AUDIO
    TITLE "0:"
    INDEX 01 07:21:13
  TRACK 234 AUDIO
    TITLE "4:cjc087_0486"
    INDEX 01 07:22:11
  TRACK 235 AUDIO
    TITLE "3:cjc087_0487"
    INDEX 01 07:23:36
  TRACK 236 AUDIO
    TITLE "0:"
    INDEX 01 07:25:31
  TRACK 237 AUDIO
    TITLE "4:cjc087_0488"
    INDEX 01 07:26:28
  TRACK 238 AUDIO
    TITLE "3:cjc087_0489"
    INDEX 01 07:28:56
  TRACK 239 AUDIO
    TITLE "0:"
    INDEX 01 07:31:17
  TRACK 240 AUDIO
    TITLE "4:cjc087_0490"
    INDEX 01 07:32:15
  TRACK 241 AUDIO
    TITLE "3:cjc087_0491"
    INDEX 01 07:34:33
  TRACK 242 AUDIO
    TITLE "0:"
    INDEX 01 07:37:08
  TRACK 243 AUDIO
    TITLE "4:cjc087_0492"
    INDEX 01 07:38:06
  TRACK 244 AUDIO
    TITLE "3:cjc087_0493"
    INDEX 01 07:39:40
  TRACK 245 AUDIO
    TITLE "0:"
    INDEX 01 07:41:26
  TRACK 246 AUDIO
    TITLE "4:cjc087_0494"
    INDEX 01 07:42:23
  TRACK 247 AUDIO
    TITLE "3:cjc087_0495"
    INDEX 01 07:44:32
  TRACK 248 AUDIO
    TITLE "0:"
    INDEX 01 07:47:20
  TRACK 249 AUDIO
    TITLE "5:cjc087_0496"
    INDEX 01 07:48:57
  TRACK 250 AUDIO
    TITLE "0:"
    INDEX 01 07:50:58
  TRACK 251 AUDIO
    TITLE "4:cjc087_0497"
    INDEX 01 07:51:55
  TRACK 252 AUDIO
    TITLE "3:cjc087_0498"
    INDEX 01 07:54:48
  TRACK 253 AUDIO
    TITLE "0:"
    INDEX 01 07:57:21
  TRACK 254 AUDIO
    TITLE "4:cjc087_0499"
    INDEX 01 07:58:20
  TRACK 255 AUDIO
    TITLE "3:cjc087_0500"
    INDEX 01 07:59:65
  TRACK 256 AUDIO
    TITLE "0:"
    INDEX 01 08:01:52
  TRACK 257 AUDIO
    TITLE "4:cjc087_0501"
    INDEX 01 08:02:51
  TRACK 258 AUDIO
    TITLE "3:cjc087_0502"
    INDEX 01 08:04:44
  TRACK 259 AUDIO
    TITLE "0:"
    INDEX 01 08:07:03
  TRACK 260 AUDIO
    TITLE "4:cjc087_0503"
    INDEX 01 08:08:03
  TRACK 261 AUDIO
    TITLE "3:cjc087_0504"
    INDEX 01 08:09:32
  TRACK 262 AUDIO
    TITLE "0:"
    INDEX 01 08:11:66
  TRACK 263 AUDIO
    TITLE "4:cjc087_0505"
    INDEX 01 08:12:65
  TRACK 264 AUDIO
    TITLE "3:cjc087_0506"
    INDEX 01 08:14:06
  TRACK 265 AUDIO
    TITLE "0:"
    INDEX 01 08:16:06
  TRACK 266 AUDIO
    TITLE "4:cjc087_0507"
    INDEX 01 08:17:06
  TRACK 267 AUDIO
    TITLE "3:cjc087_0508"
    INDEX 01 08:19:05
  TRACK 268 AUDIO
    TITLE "0:"
    INDEX 01 08:21:35
  TRACK 269 AUDIO
    TITLE "4:cjc087_0509"
    INDEX 01 08:22:30
  TRACK 270 AUDIO
    TITLE "3:cjc087_0510"
    INDEX 01 08:27:30
  TRACK 271 AUDIO
    TITLE "0:"
    INDEX 01 08:31:69
  TRACK 272 AUDIO
    TITLE "5:cjc087_0511"
    INDEX 01 08:33:28
  TRACK 273 AUDIO
    TITLE "0:"
    INDEX 01 08:35:29
  TRACK 274 AUDIO
    TITLE "4:cjc087_0512"
    INDEX 01 08:36:25
  TRACK 275 AUDIO
    TITLE "3:cjc087_0513"
    INDEX 01 08:37:59
  TRACK 276 AUDIO
    TITLE "0:"
    INDEX 01 08:39:41
  TRACK 277 AUDIO
    TITLE "4:cjc087_0514"
    INDEX 01 08:40:34
  TRACK 278 AUDIO
    TITLE "3:cjc087_0515"
    INDEX 01 08:42:25
  TRACK 279 AUDIO
    TITLE "0:"
    INDEX 01 08:44:24
  TRACK 280 AUDIO
    TITLE "4:cjc087_0516"
    INDEX 01 08:45:22
  TRACK 281 AUDIO
    TITLE "3:cjc087_0517"
    INDEX 01 08:47:25
  TRACK 282 AUDIO
    TITLE "0:"
    INDEX 01 08:50:15
  TRACK 283 AUDIO
    TITLE "4:cjc087_0518"
    INDEX 01 08:51:13
  TRACK 284 AUDIO
    TITLE "3:cjc087_0519"
    INDEX 01 08:53:15
  TRACK 285 AUDIO
    TITLE "0:"
    INDEX 01 08:55:20
  TRACK 286 AUDIO
    TITLE "4:cjc087_0520"
    INDEX 01 08:56:18
  TRACK 287 AUDIO
    TITLE "3:cjc087_0521"
    INDEX 01 08:58:38
  TRACK 288 AUDIO
    TITLE "0:"
    INDEX 01 09:01:17
  TRACK 289 AUDIO
    TITLE "4:cjc087_0522"
    INDEX 01 09:02:18
  TRACK 290 AUDIO
    TITLE "3:cjc087_0523"
    INDEX 01 09:04:07
  TRACK 291 AUDIO
    TITLE "0:"
    INDEX 01 09:05:66
  TRACK 292 AUDIO
    TITLE "4:cjc087_0524"
    INDEX 01 09:06:63
  TRACK 293 AUDIO
    TITLE "3:cjc087_0525"
    INDEX 01 09:08:50
  TRACK 294 AUDIO
    TITLE "0:"
    INDEX 01 09:11:47
  TRACK 295 AUDIO
    TITLE "2:cjc087_0526"
    INDEX 01 09:13:06
  TRACK 296 AUDIO
    TITLE "0:"
    INDEX 01 09:23:63
  TRACK 297 AUDIO
    TITLE "5:cjc087_0527"
    INDEX 01 09:25:33
  TRACK 298 AUDIO
    TITLE "0:"
    INDEX 01 09:27:38
  TRACK 299 AUDIO
    TITLE "4:cjc087_0528"
    INDEX 01 09:28:35
  TRACK 300 AUDIO
    TITLE "3:cjc087_0529"
    INDEX 01 09:31:04
  TRACK 301 AUDIO
    TITLE "0:"
    INDEX 01 09:33:25
  TRACK 302 AUDIO
    TITLE "4:cjc087_0530"
    INDEX 01 09:34:24
  TRACK 303 AUDIO
    TITLE "3:cjc087_0531"
    INDEX 01 09:36:23
  TRACK 304 AUDIO
    TITLE "0:"
    INDEX 01 09:38:30
  TRACK 305 AUDIO
    TITLE "4:cjc087_0532"
    INDEX 01 09:39:29
  TRACK 306 AUDIO
    TITLE "3:cjc087_0533"
    INDEX 01 09:41:50
  TRACK 307 AUDIO
    TITLE "0:"
    INDEX 01 09:44:23
  TRACK 308 AUDIO
    TITLE "4:cjc087_0534"
    INDEX 01 09:45:20
  TRACK 309 AUDIO
    TITLE "3:cjc087_0535"
    INDEX 01 09:47:31
  TRACK 310 AUDIO
    TITLE "0:"
    INDEX 01 09:50:15
  TRACK 311 AUDIO
    TITLE "4:cjc087_0536"
    INDEX 01 09:51:15
  TRACK 312 AUDIO
    TITLE "3:cjc087_0537"
    INDEX 01 09:52:57
  TRACK 313 AUDIO
    TITLE "0:"
    INDEX 01 09:54:62
  TRACK 314 AUDIO
    TITLE "4:cjc087_0538"
    INDEX 01 09:55:62
  TRACK 315 AUDIO
    TITLE "3:cjc087_0539"
    INDEX 01 09:58:15
  TRACK 316 AUDIO
    TITLE "0:"
    INDEX 01 10:01:07
  TRACK 317 AUDIO
    TITLE "5:cjc087_0540"
    INDEX 01 10:02:46
  TRACK 318 AUDIO
    TITLE "0:"
    INDEX 01 10:04:49
  TRACK 319 AUDIO
    TITLE "4:cjc087_0541"
    INDEX 01 10:05:42
  TRACK 320 AUDIO
    TITLE "3:cjc087_0542"
    INDEX 01 10:07:71
  TRACK 321 AUDIO
    TITLE "0:"
    INDEX 01 10:09:71
  TRACK 322 AUDIO
    TITLE "4:cjc087_0543"
    INDEX 01 10:10:71
  TRACK 323 AUDIO
    TITLE "3:cjc087_0544"
    INDEX 01 10:12:44
  TRACK 324 AUDIO
    TITLE "0:"
    INDEX 01 10:14:39
  TRACK 325 AUDIO
    TITLE "4:cjc087_0545"
    INDEX 01 10:15:39
  TRACK 326 AUDIO
    TITLE "3:cjc087_0546"
    INDEX 01 10:17:32
  TRACK 327 AUDIO
    TITLE "0:"
    INDEX 01 10:19:19
  TRACK 328 AUDIO
    TITLE "4:cjc087_0547"
    INDEX 01 10:20:16
  TRACK 329 AUDIO
    TITLE "3:cjc087_0548"
    INDEX 01 10:21:61
  TRACK 330 AUDIO
    TITLE "0:"
    INDEX 01 10:24:16
  TRACK 331 AUDIO
    TITLE "4:cjc087_0549"
    INDEX 01 10:25:14
  TRACK 332 AUDIO
    TITLE "3:cjc087_0550"
    INDEX 01 10:26:66
  TRACK 333 AUDIO
    TITLE "0:"
    INDEX 01 10:28:69
  TRACK 334 AUDIO
    TITLE "4:cjc087_0551"
    INDEX 01 10:29:68
  TRACK 335 AUDIO
    TITLE "3:cjc087_0552"
    INDEX 01 10:31:55
  TRACK 336 AUDIO
    TITLE "0:"
    INDEX 01 10:34:09
  TRACK 337 AUDIO
    TITLE "4:cjc087_0553"
    INDEX 01 10:35:08
  TRACK 338 AUDIO
    TITLE "3:cjc087_0554"
    INDEX 01 10:37:13
  TRACK 339 AUDIO
    TITLE "0:"
    INDEX 01 10:39:49
  TRACK 340 AUDIO
    TITLE "5:cjc087_0555"
    INDEX 01 10:41:11
  TRACK 341 AUDIO
    TITLE "0:"
    INDEX 01 10:43:17
  TRACK 342 AUDIO
    TITLE "4:cjc087_0556"
    INDEX 01 10:44:15
  TRACK 343 AUDIO
    TITLE "3:cjc087_0557"
    INDEX 01 10:46:20
  TRACK 344 AUDIO
    TITLE "0:"
    INDEX 01 10:48:07
  TRACK 345 AUDIO
    TITLE "4:cjc087_0558"
    INDEX 01 10:49:06
  TRACK 346 AUDIO
    TITLE "3:cjc087_0559"
    INDEX 01 10:51:35
  TRACK 347 AUDIO
    TITLE "0:"
    INDEX 01 10:53:51
  TRACK 348 AUDIO
    TITLE "4:cjc087_0560"
    INDEX 01 10:54:51
  TRACK 349 AUDIO
    TITLE "3:cjc087_0561"
    INDEX 01 10:56:28
  TRACK 350 AUDIO
    TITLE "0:"
    INDEX 01 10:58:29
  TRACK 351 AUDIO
    TITLE "4:cjc087_0562"
    INDEX 01 10:59:26
  TRACK 352 AUDIO
    TITLE "3:cjc087_0563"
    INDEX 01 11:00:73
  TRACK 353 AUDIO
    TITLE "0:"
    INDEX 01 11:03:18
  TRACK 354 AUDIO
    TITLE "4:cjc087_0564"
    INDEX 01 11:04:18
  TRACK 355 AUDIO
    TITLE "3:cjc087_0565"
    INDEX 01 11:06:42
  TRACK 356 AUDIO
    TITLE "0:"
    INDEX 01 11:08:72
  TRACK 357 AUDIO
    TITLE "4:cjc087_0566"
    INDEX 01 11:09:70
  TRACK 358 AUDIO
    TITLE "3:cjc087_0567"
    INDEX 01 11:11:67
  TRACK 359 AUDIO
    TITLE "0:"
    INDEX 01 11:14:22
  TRACK 360 AUDIO
    TITLE "4:cjc087_0568"
    INDEX 01 11:15:19
  TRACK 361 AUDIO
    TITLE "3:cjc087_0569"
    INDEX 01 11:16:52
  TRACK 362 AUDIO
    TITLE "0:"
    INDEX 01 11:18:45
  TRACK 363 AUDIO
    TITLE "5:cjc087_0570"
    INDEX 01 11:20:05
  TRACK 364 AUDIO
    TITLE "0:"
    INDEX 01 11:22:08
  TRACK 365 AUDIO
    TITLE "4:cjc087_0571"
    INDEX 01 11:23:07
  TRACK 366 AUDIO
    TITLE "3:cjc087_0572"
    INDEX 01 11:25:04
  TRACK 367 AUDIO
    TITLE "0:"
    INDEX 01 11:27:44
  TRACK 368 AUDIO
    TITLE "4:cjc087_0573"
    INDEX 01 11:28:42
  TRACK 369 AUDIO
    TITLE "3:cjc087_0574"
    INDEX 01 11:30:41
  TRACK 370 AUDIO
    TITLE "0:"
    INDEX 01 11:32:47
  TRACK 371 AUDIO
    TITLE "4:cjc087_0575"
    INDEX 01 11:33:41
  TRACK 372 AUDIO
    TITLE "3:cjc087_0576"
    INDEX 01 11:35:04
  TRACK 373 AUDIO
    TITLE "0:"
    INDEX 01 11:36:49
  TRACK 374 AUDIO
    TITLE "4:cjc087_0577"
    INDEX 01 11:37:46
  TRACK 375 AUDIO
    TITLE "3:cjc087_0578"
    INDEX 01 11:39:02
  TRACK 376 AUDIO
    TITLE "0:"
    INDEX 01 11:40:74
  TRACK 377 AUDIO
    TITLE "4:cjc087_0579"
    INDEX 01 11:41:70
  TRACK 378 AUDIO
    TITLE "3:cjc087_0580"
    INDEX 01 11:44:01
  TRACK 379 AUDIO
    TITLE "0:"
    INDEX 01 11:46:47
  TRACK 380 AUDIO
    TITLE "4:cjc087_0581"
    INDEX 01 11:47:47
  TRACK 381 AUDIO
    TITLE "3:cjc087_0582"
    INDEX 01 11:49:52
  TRACK 382 AUDIO
    TITLE "0:"
    INDEX 01 11:53:04
  TRACK 383 AUDIO
    TITLE "4:cjc087_0583"
    INDEX 01 11:54:12
  TRACK 384 AUDIO
    TITLE "3:cjc087_0584"
    INDEX 01 11:56:14
  TRACK 385 AUDIO
    TITLE "0:"
    INDEX 01 11:58:39
  TRACK 386 AUDIO
    TITLE "5:cjc087_0585"
    INDEX 01 12:00:00
  TRACK 387 AUDIO
    TITLE "0:"
    INDEX 01 12:01:55
  TRACK 388 AUDIO
    TITLE "4:cjc087_0586"
    INDEX 01 12:02:52
  TRACK 389 AUDIO
    TITLE "3:cjc087_0587"
    INDEX 01 12:05:19
  TRACK 390 AUDIO
    TITLE "0:"
    INDEX 01 12:08:00
  TRACK 391 AUDIO
    TITLE "4:cjc087_0588"
    INDEX 01 12:08:72
  TRACK 392 AUDIO
    TITLE "3:cjc087_0589"
    INDEX 01 12:11:06
  TRACK 393 AUDIO
    TITLE "0:"
    INDEX 01 12:13:05
  TRACK 394 AUDIO
    TITLE "4:cjc087_0590"
    INDEX 01 12:14:03
  TRACK 395 AUDIO
    TITLE "3:cjc087_0591"
    INDEX 01 12:16:01
  TRACK 396 AUDIO
    TITLE "0:"
    INDEX 01 12:17:69
  TRACK 397 AUDIO
    TITLE "4:cjc087_0592"
    INDEX 01 12:18:69
  TRACK 398 AUDIO
    TITLE "3:cjc087_0593"
    INDEX 01 12:20:74
  TRACK 399 AUDIO
    TITLE "0:"
    INDEX 01 12:22:71
  TRACK 400 AUDIO
    TITLE "4:cjc087_0594"
    INDEX 01 12:24:07
  TRACK 401 AUDIO
    TITLE "3:cjc087_0595"
    INDEX 01 12:26:43
  TRACK 402 AUDIO
    TITLE "0:"
    INDEX 01 12:29:04
  TRACK 403 AUDIO
    TITLE "4:cjc087_0596"
    INDEX 01 12:30:02
  TRACK 404 AUDIO
    TITLE "3:cjc087_0597"
    INDEX 01 12:32:08
  TRACK 405 AUDIO
    TITLE "0:"
    INDEX 01 12:34:21
  TRACK 406 AUDIO
    TITLE "4:cjc087_0598"
    INDEX 01 12:35:20
  TRACK 407 AUDIO
    TITLE "3:cjc087_0599"
    INDEX 01 12:37:31
  TRACK 408 AUDIO
    TITLE "0:"
    INDEX 01 12:40:04
  TRACK 409 AUDIO
    TITLE "4:cjc087_0600"
    INDEX 01 12:41:03
  TRACK 410 AUDIO
    TITLE "3:cjc087_0601"
    INDEX 01 12:43:06
  TRACK 411 AUDIO
    TITLE "0:"
    INDEX 01 12:44:66
  TRACK 412 AUDIO
    TITLE "2:cjc087_0602"
    INDEX 01 12:46:26
  TRACK 413 AUDIO
    TITLE "0:"
    INDEX 01 12:56:15
  TRACK 414 AUDIO
    TITLE "5:cjc087_0603"
    INDEX 01 12:57:57
  TRACK 415 AUDIO
    TITLE "0:"
    INDEX 01 12:59:62
  TRACK 416 AUDIO
    TITLE "4:cjc087_0604"
    INDEX 01 13:00:60
  TRACK 417 AUDIO
    TITLE "3:cjc087_0605"
    INDEX 01 13:02:47
  TRACK 418 AUDIO
    TITLE "0:"
    INDEX 01 13:04:51
  TRACK 419 AUDIO
    TITLE "4:cjc087_0606"
    INDEX 01 13:05:49
  TRACK 420 AUDIO
    TITLE "3:cjc087_0607"
    INDEX 01 13:08:02
  TRACK 421 AUDIO
    TITLE "0:"
    INDEX 01 13:10:19
  TRACK 422 AUDIO
    TITLE "4:cjc087_0608"
    INDEX 01 13:11:18
  TRACK 423 AUDIO
    TITLE "3:cjc087_0609"
    INDEX 01 13:13:31
  TRACK 424 AUDIO
    TITLE "0:"
    INDEX 01 13:16:08
  TRACK 425 AUDIO
    TITLE "4:cjc087_0610"
    INDEX 01 13:17:07
  TRACK 426 AUDIO
    TITLE "3:cjc087_0611"
    INDEX 01 13:18:50
  TRACK 427 AUDIO
    TITLE "0:"
    INDEX 01 13:20:41
  TRACK 428 AUDIO
    TITLE "4:cjc087_0612"
    INDEX 01 13:21:38
  TRACK 429 AUDIO
    TITLE "3:cjc087_0613"
    INDEX 01 13:23:33
  TRACK 430 AUDIO
    TITLE "0:"
    INDEX 01 13:25:56
  TRACK 431 AUDIO
    TITLE "4:cjc087_0614"
    INDEX 01 13:26:49
  TRACK 432 AUDIO
    TITLE "3:cjc087_0615"
    INDEX 01 13:28:34
  TRACK 433 AUDIO
    TITLE "0:"
    INDEX 01 13:30:57
  TRACK 434 AUDIO
    TITLE "4:cjc087_0616"
    INDEX 01 13:31:54
  TRACK 435 AUDIO
    TITLE "3:cjc087_0617"
    INDEX 01 13:32:73
  TRACK 436 AUDIO
    TITLE "0:"
    INDEX 01 13:34:72
  TRACK 437 AUDIO
    TITLE "5:cjc087_0618"
    INDEX 01 13:36:32
  TRACK 438 AUDIO
    TITLE "0:"
    INDEX 01 13:38:31
  TRACK 439 AUDIO
    TITLE "4:cjc087_0619"
    INDEX 01 13:39:24
  TRACK 440 AUDIO
    TITLE "3:cjc087_0620"
    INDEX 01 13:41:72
  TRACK 441 AUDIO
    TITLE "0:"
    INDEX 01 13:44:69
  TRACK 442 AUDIO
    TITLE "4:cjc087_0621"
    INDEX 01 13:45:68
  TRACK 443 AUDIO
    TITLE "3:cjc087_0622"
    INDEX 01 13:48:49
  TRACK 444 AUDIO
    TITLE "0:"
    INDEX 01 13:51:24
  TRACK 445 AUDIO
    TITLE "4:cjc087_0623"
    INDEX 01 13:52:23
  TRACK 446 AUDIO
    TITLE "3:cjc087_0624"
    INDEX 01 13:54:63
  TRACK 447 AUDIO
    TITLE "0:"
    INDEX 01 13:57:50
  TRACK 448 AUDIO
    TITLE "4:cjc087_0625"
    INDEX 01 13:58:49
  TRACK 449 AUDIO
    TITLE "3:cjc087_0626"
    INDEX 01 14:01:30
  TRACK 450 AUDIO
    TITLE "0:"
    INDEX 01 14:03:48
  TRACK 451 AUDIO
    TITLE "4:cjc087_0627"
    INDEX 01 14:04:46
  TRACK 452 AUDIO
    TITLE "3:cjc087_0628"
    INDEX 01 14:07:54
  TRACK 453 AUDIO
    TITLE "0:"
    INDEX 01 14:11:11
  TRACK 454 AUDIO
    TITLE "5:cjc087_0629"
    INDEX 01 14:12:47
  TRACK 455 AUDIO
    TITLE "0:"
    INDEX 01 14:14:48
  TRACK 456 AUDIO
    TITLE "4:cjc087_0630"
    INDEX 01 14:15:46
  TRACK 457 AUDIO
    TITLE "3:cjc087_0631"
    INDEX 01 14:17:74
  TRACK 458 AUDIO
    TITLE "0:"
    INDEX 01 14:20:31
  TRACK 459 AUDIO
    TITLE "4:cjc087_0632"
    INDEX 01 14:21:29
  TRACK 460 AUDIO
    TITLE "3:cjc087_0633"
    INDEX 01 14:23:12
  TRACK 461 AUDIO
    TITLE "0:"
    INDEX 01 14:25:32
  TRACK 462 AUDIO
    TITLE "4:cjc087_0634"
    INDEX 01 14:26:32
  TRACK 463 AUDIO
    TITLE "3:cjc087_0635"
    INDEX 01 14:28:42
  TRACK 464 AUDIO
    TITLE "0:"
    INDEX 01 14:30:51
  TRACK 465 AUDIO
    TITLE "4:cjc087_0636"
    INDEX 01 14:31:52
  TRACK 466 AUDIO
    TITLE "3:cjc087_0637"
    INDEX 01 14:33:61
  TRACK 467 AUDIO
    TITLE "0:"
    INDEX 01 14:35:62
  TRACK 468 AUDIO
    TITLE "4:cjc087_0638"
    INDEX 01 14:36:60
  TRACK 469 AUDIO
    TITLE "3:cjc087_0639"
    INDEX 01 14:39:15
  TRACK 470 AUDIO
    TITLE "0:"
    INDEX 01 14:41:41
  TRACK 471 AUDIO
    TITLE "4:cjc087_0640"
    INDEX 01 14:42:39
  TRACK 472 AUDIO
    TITLE "3:cjc087_0641"
    INDEX 01 14:45:17
  TRACK 473 AUDIO
    TITLE "0:"
    INDEX 01 14:48:00
  TRACK 474 AUDIO
    TITLE "4:cjc087_0642"
    INDEX 01 14:48:67
  TRACK 475 AUDIO
    TITLE "3:cjc087_0643"
    INDEX 01 14:51:08
  TRACK 476 AUDIO
    TITLE "0:"
    INDEX 01 14:53:46
  TRACK 477 AUDIO
    TITLE "5:cjc087_0644"
    INDEX 01 14:55:08
  TRACK 478 AUDIO
    TITLE "0:"
    INDEX 01 14:57:07
  TRACK 479 AUDIO
    TITLE "4:cjc087_0645"
    INDEX 01 14:58:02
  TRACK 480 AUDIO
    TITLE "3:cjc087_0646"
    INDEX 01 15:00:23
  TRACK 481 AUDIO
    TITLE "0:"
    INDEX 01 15:02:69
  TRACK 482 AUDIO
    TITLE "4:cjc087_0647"
    INDEX 01 15:03:68
  TRACK 483 AUDIO
    TITLE "3:cjc087_0648"
    INDEX 01 15:06:35
  TRACK 484 AUDIO
    TITLE "0:"
    INDEX 01 15:08:46
  TRACK 485 AUDIO
    TITLE "4:cjc087_0649"
    INDEX 01 15:09:43
  TRACK 486 AUDIO
    TITLE "3:cjc087_0650"
    INDEX 01 15:11:30
  TRACK 487 AUDIO
    TITLE "0:"
    INDEX 01 15:13:23
  TRACK 488 AUDIO
    TITLE "4:cjc087_0651"
    INDEX 01 15:14:23
  TRACK 489 AUDIO
    TITLE "3:cjc087_0652"
    INDEX 01 15:16:53
  TRACK 490 AUDIO
    TITLE "0:"
    INDEX 01 15:19:30
  TRACK 491 AUDIO
    TITLE "4:cjc087_0653"
    INDEX 01 15:20:27
  TRACK 492 AUDIO
    TITLE "3:cjc087_0654"
    INDEX 01 15:22:48
  TRACK 493 AUDIO
    TITLE "0:"
    INDEX 01 15:25:23
  TRACK 494 AUDIO
    TITLE "4:cjc087_0655"
    INDEX 01 15:26:20
  TRACK 495 AUDIO
    TITLE "3:cjc087_0656"
    INDEX 01 15:28:58
  TRACK 496 AUDIO
    TITLE "0:"
    INDEX 01 15:31:33
  TRACK 497 AUDIO
    TITLE "4:cjc087_0657"
    INDEX 01 15:32:31
  TRACK 498 AUDIO
    TITLE "3:cjc087_0658"
    INDEX 01 15:34:51
  TRACK 499 AUDIO
    TITLE "0:"
    INDEX 01 15:37:06
